# xmcd CD database file
#
# Track frame offsets:
#	150
#	16194
#	31434
#	42868
#	58917
#	74495
#	97425
#	109476
#	121208
#	134796
#	146890
#	160198
#	172814
#	187767
#	203442
#	219735
#	235941
#	250446
#	266185
#
# Disc length: 3765 seconds
#
# Revision: 0
# Processed by: cddbd v1.5.2PL0 Copyright (c) Steve Scherf et al.
# Submitted via: CDex 1.70beta2
#
DISCID=280eb313
DTITLE=Benny Goodman - The King Of Swing Vol. 11
DYEAR=2007
DGENRE=Jazz
TTITLE0=King Porter Stomp
TTITLE1=Flying Home
TTITLE2=Stardust
TTITLE3=All The Things You Are
TTITLE4=Indian Summer
TTITLE5=One O'Clock Jump
TTITLE6=Frenesi
TTITLE7=The Moon Won't Talk
TTITLE8=Yours
TTITLE9=Gone With What Draft
TTITLE10=Let The Doorknob Hit 'Cha
TTITLE11=Caprice XXIII Paganini
TTITLE12=I See A Million People
TTITLE13=Moon And Sand
TTITLE14=Superman
TTITLE15=Who Can I Turn To?
TTITLE16=Something New
TTITLE17=I Don't Want To Set The World On Fire
TTITLE18=A Smooth One
EXTD=YEAR: 2007
EXTT0=
EXTT1=
EXTT2=
EXTT3=
EXTT4=
EXTT5=
EXTT6=
EXTT7=
EXTT8=
EXTT9=
EXTT10=
EXTT11=
EXTT12=
EXTT13=
EXTT14=
EXTT15=
EXTT16=
EXTT17=
EXTT18=
PLAYORDER=
